#!OML:ASF F:\VICON\USERDATA\INSTALL\rory3\rory3.ASF
:FULLY-SPECIFIED
:DEGREES
214
root 10.1564 18.1367 0.731311 -181.077 -8.3674 181.093
lowerback 13.6575 4.30878 1.71487
upperback 2.8632 5.57436 -1.21432
thorax -4.31373 2.59806 -3.16565
lowerneck -17.029 16.3467 -4.18767
upperneck 44.6148 21.8955 3.85396
head 18.6828 7.24172 6.26949
rclavicle -1.04362e-015 -1.39149e-014
rhumerus -44.7335 -21.1915 -65.942
rradius 32.9968
rwrist 5.27421
rhand -13.6118 7.24898
rfingers 7.12502
rthumb 12.5034 -22.3569
lclavicle -1.04362e-015 -1.39149e-014
lhumerus -29.5425 8.08038 81.6393
lradius 36.7559
lwrist -3.07416
lhand -17.8302 26.7594
lfingers 7.12502
lthumb 8.43423 56.571
rfemur -13.826 -3.93152 23.1899
rtibia 30.382
rfoot -8.88365 -1.99999
rtoes 0.985052
lfemur -0.964719 -13.1974 -18.9852
ltibia 42.6394
lfoot 23.36 -30.1378
ltoes 20.3381
215
root 10.1276 18.1248 0.856201 -180.869 -8.31636 180.996
lowerback 13.5423 4.2442 1.51571
upperback 2.83818 5.46648 -1.18567
thorax -4.30623 2.54908 -2.99988
lowerneck -17.1269 16.3185 -4.3002
upperneck 44.6505 21.8629 3.9381
head 18.6939 7.21641 6.32639
rclavicle -2.51463e-014 1.03368e-014
rhumerus -45.0468 -21.6545 -65.4572
rradius 32.5497
rwrist 5.32213
rhand -13.6472 6.62815
rfingers 7.12502
rthumb 12.4693 -22.9799
lclavicle -2.51463e-014 1.03368e-014
lhumerus -29.1346 7.76584 81.8612
lradius 36.9066
lwrist -2.76915
lhand -17.5939 27.5092
lfingers 7.12502
lthumb 8.66229 57.3115
rfemur -14.576 -3.68842 22.9687
rtibia 30.5222
rfoot -8.67107 -2.11768
rtoes 0.765906
lfemur -0.0370129 -13.7098 -19.4397
ltibia 41.2283
lfoot 23.8638 -29.6494
ltoes 20.6706
216
root 10.0952 18.1139 0.989543 -180.604 -8.32752 180.887
lowerback 13.5224 4.11938 1.38036
upperback 2.77134 5.28907 -1.18752
thorax -4.38855 2.4636 -2.90031
lowerneck -17.2658 16.302 -4.42059
upperneck 44.6659 21.8561 4.03512
head 18.6967 7.20568 6.39695
rclavicle -5.02428e-014 1.98785e-014
rhumerus -45.2527 -22.0347 -65.046
rradius 32.0721
rwrist 5.4068
rhand -13.5162 5.95882
rfingers 7.12502
rthumb 12.5956 -23.6415
lclavicle -5.02428e-014 1.98785e-014
lhumerus -28.6992 7.53213 82.0525
lradius 37.0478
lwrist -2.61192
lhand -17.6509 28.0997
lfingers 7.12502
lthumb 8.60723 57.9042
rfemur -15.4323 -3.69885 22.707
rtibia 30.7196
rfoot -8.41122 -1.96326
rtoes 1.04458
lfemur 0.792794 -14.3814 -19.9284
ltibia 39.7166
lfoot 24.3563 -28.9662
ltoes 21.2733
217
root 10.0601 18.1034 1.12352 -180.353 -8.25353 180.82
lowerback 13.5732 4.00627 1.31756
upperback 2.64434 5.14255 -1.182
thorax -4.56452 2.3922 -2.84678
lowerneck -17.233 16.3192 -4.40836
upperneck 44.6699 21.8781 3.98923
head 18.7016 7.20275 6.3744
rclavicle -7.10158e-014 9.74045e-015
rhumerus -45.5499 -22.4276 -64.5524
rradius 31.6356
rwrist 5.59445
rhand -13.2865 5.63459
rfingers 7.12502
rthumb 12.8171 -23.9519
lclavicle -7.10158e-014 9.74045e-015
lhumerus -28.4049 7.42802 82.2162
lradius 37.3037
lwrist -2.54178
lhand -17.9899 28.2127
lfingers 7.12502
lthumb 8.2801 58.0304
rfemur -16.2811 -3.70356 22.4984
rtibia 30.9433
rfoot -8.14693 -1.81669
rtoes 0.916643
lfemur 1.66004 -15.0256 -20.4062
ltibia 38.0843
lfoot 24.6976 -28.4148
ltoes 22.2654
218
root 10.0219 18.0919 1.25436 -180.127 -8.02719 180.83
lowerback 13.4658 3.95346 1.3097
upperback 2.61009 5.07865 -1.15014
thorax -4.54908 2.36357 -2.79215
lowerneck -17.2085 16.3269 -4.30443
upperneck 44.5784 21.9418 3.76047
head 18.7059 7.21326 6.26601
rclavicle -1.2921e-015 6.36111e-015
rhumerus -45.7404 -22.7029 -64.2033
rradius 31.3168
rwrist 5.46838
rhand -13.1942 5.45119
rfingers 7.12502
rthumb 12.906 -24.1297
lclavicle -1.2921e-015 6.36111e-015
lhumerus -27.9214 7.26394 82.4216
lradius 37.4508
lwrist -2.53716
lhand -18.0613 28.4163
lfingers 7.12502
lthumb 8.21122 58.2368
rfemur -17.1235 -3.55688 22.3546
rtibia 31.1611
rfoot -7.9067 -1.67431
rtoes 1.43332
lfemur 2.56241 -15.5241 -20.8357
ltibia 36.3428
lfoot 25.2921 -27.9111
ltoes 24.8641
219
root 9.98192 18.0769 1.3904 -179.859 -7.76304 180.837
lowerback 13.3109 3.92792 1.29386
upperback 2.61261 5.04541 -1.13628
thorax -4.46628 2.35049 -2.7514
lowerneck -17.3651 16.2819 -4.2986
upperneck 44.4856 21.9369 3.67731
head 18.7108 7.20775 6.24222
rclavicle -3.16068e-014 -3.57812e-015
rhumerus -45.8241 -23.0661 -63.9012
rradius 30.907
rwrist 5.49467
rhand -13.204 5.51677
rfingers 7.12502
rthumb 12.8966 -24.0647
lclavicle -3.16068e-014 -3.57812e-015
lhumerus -27.3247 7.20485 82.5721
lradius 37.4908
lwrist -2.82853
lhand -17.5756 28.4737
lfingers 7.12502
lthumb 8.67988 58.2752
rfemur -18.0341 -3.4154 22.1998
rtibia 31.3776
rfoot -7.70362 -1.45233
rtoes 1.88761
lfemur 3.38358 -16.0181 -21.2626
ltibia 34.5067
lfoot 25.9759 -27.3931
ltoes 27.8197
220
root 9.94038 18.0604 1.53122 -179.524 -7.43955 180.849
lowerback 13.203 3.93413 1.25051
upperback 2.53208 5.05898 -1.10235
thorax -4.49843 2.36094 -2.69002
lowerneck -17.5034 16.2307 -4.3996
upperneck 44.477 21.8557 3.81874
head 18.6968 7.18529 6.3158
rclavicle -1.05356e-014 -2.38542e-015
rhumerus -46.0353 -23.3665 -63.5164
rradius 30.6152
rwrist 5.55357
rhand -13.2617 5.71104
rfingers 7.12502
rthumb 12.841 -23.874
lclavicle -1.05356e-014 -2.38542e-015
lhumerus -26.809 7.10125 82.7855
lradius 37.4388
lwrist -2.89405
lhand -17.36 28.2295
lfingers 7.12502
lthumb 8.88795 58.0223
rfemur -19.0378 -3.30176 22.0386
rtibia 31.5406
rfoot -7.47634 -1.10553
rtoes 2.36439
lfemur 4.08135 -16.5148 -21.7165
ltibia 32.7385
lfoot 25.421 -27.117
ltoes 29.3571
221
root 9.89641 18.0408 1.67455 -179.163 -7.06205 180.85
lowerback 13.0524 3.93178 1.17709
upperback 2.45631 5.05897 -1.04158
thorax -4.50798 2.36599 -2.57828
lowerneck -17.5659 16.2281 -4.36935
upperneck 44.4311 21.8851 3.73889
head 18.7068 7.19139 6.28784
rclavicle -6.94255e-014 2.74323e-014
rhumerus -46.2196 -23.5277 -63.1693
rradius 30.5143
rwrist 5.6755
rhand -13.0781 5.78142
rfingers 7.12502
rthumb 13.0179 -23.7924
lclavicle -6.94255e-014 2.74323e-014
lhumerus -26.2178 7.17786 83.0284
lradius 37.2498
lwrist -2.91421
lhand -17.4785 27.7755
lfingers 7.12502
lthumb 8.77359 57.5731
rfemur -20.0851 -3.15212 21.8433
rtibia 31.6567
rfoot -7.11514 -0.696209
rtoes 3.32243
lfemur 4.69764 -16.9813 -22.2288
ltibia 31.1561
lfoot 23.4772 -26.601
ltoes 31.2874
222
root 9.85189 18.0297 1.81967 -178.863 -6.65424 181.017
lowerback 12.8985 3.91256 1.24622
upperback 2.4541 5.05302 -0.923576
thorax -4.43115 2.36617 -2.48117
lowerneck -17.733 16.2432 -4.30603
upperneck 44.4218 21.9762 3.59899
head 18.7829 7.2066 6.2594
rclavicle 1.5381e-014 5.76476e-015
rhumerus -46.2354 -23.5111 -62.9349
rradius 30.351
rwrist 5.85096
rhand -12.7929 6.21759
rfingers 7.12502
rthumb 13.2928 -23.3385
lclavicle 1.5381e-014 5.76476e-015
lhumerus -25.7659 7.1015 83.2938
lradius 37.5247
lwrist -2.88835
lhand -17.3202 27.9069
lfingers 7.12502
lthumb 8.9264 57.6981
rfemur -21.0113 -3.04166 21.8179
rtibia 31.6847
rfoot -6.68354 -0.155417
rtoes 4.84674
lfemur 5.40633 -17.1043 -22.5532
ltibia 29.8389
lfoot 18.7426 -27.5568
ltoes 27.1158
